<svg xmlns="http://www.w3.org/2000/svg" viewBox="0 0 1400 600" preserveAspectRatio="none">
  <defs>
    <radialGradient id="soilGlow" cx="50%" cy="44%" r="74%">
      <stop offset="0" stop-color="#89772e"/>
      <stop offset="0.48" stop-color="#6f6424"/>
      <stop offset="1" stop-color="#373512"/>
    </radialGradient>
    <linearGradient id="leafGold" x1="0" y1="0" x2="1" y2="1">
      <stop offset="0" stop-color="#b5a547" stop-opacity="0.55"/>
      <stop offset="0.55" stop-color="#4f7a30" stop-opacity="0.42"/>
      <stop offset="1" stop-color="#1c351b" stop-opacity="0.32"/>
    </linearGradient>
    <linearGradient id="vineDark" x1="0" y1="0" x2="1" y2="0">
      <stop offset="0" stop-color="#17180a" stop-opacity="0.12"/>
      <stop offset="0.5" stop-color="#23260d" stop-opacity="0.55"/>
      <stop offset="1" stop-color="#17180a" stop-opacity="0.16"/>
    </linearGradient>
    <filter id="softInk">
      <feGaussianBlur stdDeviation="0.55"/>
    </filter>
    <filter id="paperNoise">
      <feTurbulence type="fractalNoise" baseFrequency="0.018 0.041" numOctaves="4" seed="23"/>
      <feColorMatrix type="matrix" values="0.18 0 0 0 0.22  0 0.18 0 0 0.20  0 0 0.12 0 0.08  0 0 0 0.18 0"/>
    </filter>
    <g id="leaf">
      <path d="M0 0 C22 -15 48 -9 62 12 C37 19 16 14 0 0Z" fill="url(#leafGold)"/>
      <path d="M5 1 C23 4 41 8 56 12" fill="none" stroke="#d3c35a" stroke-width="2" stroke-opacity="0.25"/>
    </g>
    <g id="eyePair">
      <ellipse cx="-7" cy="0" rx="4.5" ry="2.6" fill="#e8d861" opacity="0.32"/>
      <ellipse cx="7" cy="0" rx="4.5" ry="2.6" fill="#e8d861" opacity="0.32"/>
      <circle cx="-7" cy="0" r="1.4" fill="#121208" opacity="0.42"/>
      <circle cx="7" cy="0" r="1.4" fill="#121208" opacity="0.42"/>
    </g>
  </defs>

  <rect width="1400" height="600" fill="url(#soilGlow)"/>
  <rect width="1400" height="600" filter="url(#paperNoise)" opacity="0.72"/>

  <g opacity="0.34" filter="url(#softInk)">
    <path d="M-30 470 C125 378 210 508 372 407 S614 194 760 256 S1006 466 1160 356 S1288 181 1430 232" fill="none" stroke="url(#vineDark)" stroke-width="34" stroke-linecap="round"/>
    <path d="M-20 145 C152 254 266 74 430 135 S706 355 858 242 S1040 75 1216 150 S1348 335 1430 292" fill="none" stroke="url(#vineDark)" stroke-width="28" stroke-linecap="round"/>
    <path d="M90 615 C180 430 314 382 455 430 S701 540 826 405 S1046 125 1232 73" fill="none" stroke="#20240d" stroke-width="22" stroke-opacity="0.48" stroke-linecap="round"/>
  </g>

  <g opacity="0.55">
    <use href="#leaf" transform="translate(102 136) rotate(23) scale(0.86)"/>
    <use href="#leaf" transform="translate(204 426) rotate(-31) scale(0.64)"/>
    <use href="#leaf" transform="translate(316 184) rotate(153) scale(0.58)"/>
    <use href="#leaf" transform="translate(462 480) rotate(-8) scale(0.78)"/>
    <use href="#leaf" transform="translate(588 282) rotate(38) scale(0.52)"/>
    <use href="#leaf" transform="translate(704 108) rotate(206) scale(0.66)"/>
    <use href="#leaf" transform="translate(858 394) rotate(18) scale(0.82)"/>
    <use href="#leaf" transform="translate(982 176) rotate(-23) scale(0.58)"/>
    <use href="#leaf" transform="translate(1128 486) rotate(142) scale(0.72)"/>
    <use href="#leaf" transform="translate(1268 256) rotate(12) scale(0.68)"/>
    <use href="#leaf" transform="translate(1342 92) rotate(218) scale(0.52)"/>
  </g>

  <g fill="none" stroke-linecap="round" stroke-linejoin="round">
    <path d="M18 318 C78 290 110 312 152 348 C191 383 232 390 290 352" stroke="#d4bc58" stroke-width="4" stroke-opacity="0.16"/>
    <path d="M385 83 C460 126 523 122 598 74 C640 48 676 44 720 62" stroke="#cbb554" stroke-width="5" stroke-opacity="0.14"/>
    <path d="M720 548 C802 472 894 511 972 444 C1020 402 1053 366 1112 356" stroke="#cbb554" stroke-width="4" stroke-opacity="0.17"/>
    <path d="M1095 262 C1168 230 1247 236 1390 174" stroke="#e0cf69" stroke-width="3" stroke-opacity="0.13"/>
  </g>

  <g opacity="0.42" fill="#151609">
    <path d="M245 306 C263 286 294 290 312 310 C291 321 267 321 245 306Z"/>
    <path d="M1086 112 C1111 94 1147 105 1161 133 C1122 133 1104 128 1086 112Z"/>
    <path d="M661 398 C686 379 728 389 740 423 C709 414 681 418 661 398Z"/>
    <path d="M1245 430 C1268 405 1307 413 1325 444 C1288 442 1267 446 1245 430Z"/>
  </g>

  <g opacity="0.65">
    <use href="#eyePair" transform="translate(277 304) rotate(4)"/>
    <use href="#eyePair" transform="translate(1125 116) rotate(11) scale(0.85)"/>
    <use href="#eyePair" transform="translate(704 405) rotate(-8) scale(0.75)"/>
    <use href="#eyePair" transform="translate(1284 433) rotate(6) scale(0.72)"/>
  </g>

  <g fill="none" stroke="#17180a" stroke-width="4" stroke-opacity="0.22" stroke-linecap="round">
    <path d="M279 328 c-18 15 -42 24 -66 20"/>
    <path d="M704 430 c-12 20 -33 31 -58 34"/>
    <path d="M1130 140 c18 18 44 23 75 15"/>
    <path d="M1287 459 c24 13 47 15 70 7"/>
  </g>

  <g opacity="0.18">
    <circle cx="136" cy="82" r="5" fill="#eed874"/>
    <circle cx="420" cy="318" r="3" fill="#eed874"/>
    <circle cx="544" cy="526" r="4" fill="#d7c45f"/>
    <circle cx="790" cy="154" r="3" fill="#eed874"/>
    <circle cx="1038" cy="520" r="5" fill="#d7c45f"/>
    <circle cx="1198" cy="296" r="4" fill="#eed874"/>
    <circle cx="1336" cy="546" r="3" fill="#d7c45f"/>
  </g>

  <rect width="1400" height="600" fill="none" stroke="#efe07e" stroke-width="3" stroke-opacity="0.06"/>
</svg>
