<svg xmlns="http://www.w3.org/2000/svg" viewBox="0 0 160 80" preserveAspectRatio="none">
  <defs>
    <filter id="soft">
      <feGaussianBlur stdDeviation="0.25"/>
    </filter>
    <g id="paisley" fill="none" stroke-linecap="round" stroke-linejoin="round">
      <path d="M20 55 C43 48 47 22 30 15 C47 13 63 25 58 43 C55 57 39 69 20 55Z" stroke="#f4df80" stroke-width="2.2" stroke-opacity="0.32"/>
      <path d="M31 51 C41 46 43 32 35 25" stroke="#203916" stroke-width="2" stroke-opacity="0.22"/>
      <circle cx="37" cy="42" r="3.2" fill="#f6e78f" fill-opacity="0.18"/>
      <path d="M7 20 C18 10 29 9 43 17" stroke="#f6e78f" stroke-width="1.8" stroke-opacity="0.20"/>
      <path d="M66 68 C80 58 97 60 111 72" stroke="#263f18" stroke-width="2.4" stroke-opacity="0.18"/>
    </g>
  </defs>
  <rect width="160" height="80" fill="#758037"/>
  <g filter="url(#soft)">
    <use href="#paisley" transform="translate(0 0)"/>
    <use href="#paisley" transform="translate(88 -18) rotate(16 40 40) scale(0.82)"/>
    <use href="#paisley" transform="translate(36 40) rotate(180 40 40) scale(0.74)"/>
    <path d="M0 70 C28 48 51 63 78 41 S129 8 164 25" fill="none" stroke="#f5dd75" stroke-width="3" stroke-opacity="0.10"/>
    <path d="M-12 18 C24 35 44 16 76 22 S124 54 172 38" fill="none" stroke="#1d3214" stroke-width="4" stroke-opacity="0.12"/>
  </g>
</svg>
